<svg width="14" height="27" viewBox="0 0 14 27" fill="none" xmlns="http://www.w3.org/2000/svg">
<path fill-rule="evenodd" clip-rule="evenodd" d="M1.89307 0H11.8662L13.3226 1.39307V25.1069L11.9612 26.5H1.82975L0.5 25.1703V1.39307L1.89307 0ZM10.205 1.39307C10.3418 1.39307 10.4527 1.50395 10.4527 1.64073V24.9226C10.4527 25.0594 10.3418 25.1703 10.205 25.1703H3.55422C3.41744 25.1703 3.30656 25.0594 3.30656 24.9226V1.64073C3.30656 1.50395 3.41744 1.39307 3.55422 1.39307H10.205Z" fill="#021024"/>
<path d="M10.205 25.1703C10.3418 25.1703 10.4527 25.0594 10.4527 24.9226V1.64073C10.4527 1.50395 10.3418 1.39307 10.205 1.39307H3.55422C3.41744 1.39307 3.30656 1.50395 3.30656 1.64073V24.9226C3.30656 25.0594 3.41744 25.1703 3.55422 25.1703H10.205Z" fill="#021024" fill-opacity="0.25"/>
</svg>
